<svg width="900" height="1600" viewBox="0 0 900 1600" fill="none" xmlns="http://www.w3.org/2000/svg" role="img" aria-label="eLuna sky map app screen">
  <defs>
    <radialGradient id="bg" cx="50%" cy="35%" r="75%"><stop offset="0" stop-color="#3B1671"/><stop offset="0.5" stop-color="#120A2E"/><stop offset="1" stop-color="#060512"/></radialGradient>
    <linearGradient id="gold" x1="0" y1="0" x2="1" y2="1"><stop stop-color="#FFF0AE"/><stop offset=".5" stop-color="#F0C060"/><stop offset="1" stop-color="#906118"/></linearGradient>
    <linearGradient id="purpleBtn" x1="0" y1="0" x2="1" y2="0"><stop stop-color="#9D54F4"/><stop offset="1" stop-color="#6D27C8"/></linearGradient>
    <filter id="glow"><feGaussianBlur stdDeviation="6" result="b"/><feMerge><feMergeNode in="b"/><feMergeNode in="SourceGraphic"/></feMerge></filter>
    <style>.sans{font-family:Manrope,Inter,Arial,sans-serif}.serif{font-family:Cormorant Garamond,Georgia,serif}.label{letter-spacing:.12em;font-weight:700;fill:#F2C76F}.muted{fill:#B5A7CA}</style>
  </defs>
  <rect width="900" height="1600" rx="74" fill="url(#bg)"/>
  <g opacity=".65">
    <circle cx="140" cy="230" r="2" fill="#fff"/><circle cx="220" cy="170" r="2" fill="#F3C96B"/><circle cx="690" cy="180" r="2" fill="#fff"/><circle cx="760" cy="330" r="2" fill="#BC73FF"/>
    <path d="M110 260L220 170L350 240L475 195L690 180L760 330" stroke="#F3C96B" stroke-opacity=".28"/>
  </g>
  <text x="90" y="110" class="serif" font-size="54" fill="#E8CA82">eLuna</text>
  <rect x="598" y="68" width="180" height="48" rx="24" fill="#1D1434" stroke="#F3C96B" stroke-opacity=".3"/><text x="635" y="99" class="sans" font-size="20" fill="#F5D983">Full Access</text>
  <g transform="translate(75 158)">
    <rect x="0" y="0" width="750" height="78" rx="39" fill="#120C24" stroke="#fff" stroke-opacity=".12"/>
    <rect x="12" y="10" width="170" height="58" rx="29" fill="url(#purpleBtn)"/><text x="77" y="48" class="sans" font-size="24" fill="white" font-weight="700">All</text>
    <text x="260" y="48" class="sans" font-size="24" fill="#AFA4C5">Active</text><text x="440" y="48" class="sans" font-size="24" fill="#AFA4C5">Premium</text><text x="625" y="48" class="sans" font-size="24" fill="#AFA4C5">Locked</text>
  </g>
  <circle cx="450" cy="690" r="330" stroke="url(#gold)" stroke-opacity=".35"/>
  <circle cx="450" cy="690" r="260" stroke="#F4C76E" stroke-opacity=".23"/>
  <circle cx="450" cy="690" r="180" stroke="#A75BFF" stroke-opacity=".22"/>
  <path d="M450 360V1020M120 690H780M215 455L685 925M685 455L215 925" stroke="#F4C76E" stroke-opacity=".22"/>
  <g filter="url(#glow)">
    <circle cx="450" cy="690" r="62" fill="#6A2DCA" opacity=".55"/><path d="M450 595L470 675L550 690L470 705L450 785L430 705L350 690L430 675Z" fill="#B783FF" opacity=".65"/>
    <circle cx="450" cy="690" r="8" fill="#F7D779"/>
  </g>
  <g class="sans" font-size="24" font-weight="700">
    <circle cx="450" cy="330" r="68" fill="#241240" stroke="url(#gold)" stroke-width="3"/><text x="398" y="435" fill="#F7CB72">1. Sun Sign</text><text x="426" y="467" fill="#F7CB72">Active</text>
    <circle cx="182" cy="475" r="62" fill="#102A3A" stroke="url(#gold)" stroke-width="3"/><text x="94" y="570" fill="#F7CB72">2. Life Path</text><text x="134" y="602" fill="#F7CB72">Active</text>
    <circle cx="725" cy="475" r="62" fill="#1B1028" stroke="url(#gold)" stroke-width="3"/><text x="638" y="570" fill="#AFA4C5">3. Energy</text><text x="670" y="602" fill="#F7CB72">Premium</text>
    <circle cx="166" cy="780" r="62" fill="#1B102D" stroke="url(#gold)" stroke-width="3"/><text x="72" y="874" fill="#AFA4C5">4. Past Life</text><text x="115" y="906" fill="#F7CB72">Premium</text>
    <circle cx="735" cy="780" r="62" fill="#221128" stroke="url(#gold)" stroke-width="3"/><text x="657" y="874" fill="#AFA4C5">5. Soulmate</text><text x="680" y="906" fill="#F7CB72">Premium</text>
    <circle cx="616" cy="1010" r="62" fill="#0E3032" stroke="url(#gold)" stroke-width="3"/><text x="548" y="1102" fill="#AFA4C5">6. Grounding</text><text x="582" y="1134" fill="#F7CB72">Premium</text>
    <circle cx="288" cy="1010" r="62" fill="#0D303A" stroke="url(#gold)" stroke-width="3"/><text x="202" y="1102" fill="#fff">7. Weekly</text><text x="222" y="1134" fill="#AFA4C5">Locked</text>
  </g>
  <path d="M450 330L182 475L166 780L288 1010L616 1010L735 780L725 475Z" stroke="#F4C76E" stroke-opacity=".36" stroke-width="2"/>
  <rect x="75" y="1225" width="750" height="255" rx="36" fill="#170D2A" stroke="url(#gold)" stroke-opacity=".55"/>
  <circle cx="200" cy="1350" r="82" fill="#180B35" stroke="url(#gold)" stroke-width="2"/><path d="M150 1358L205 1305L250 1368L180 1325L222 1410Z" stroke="#B86AFF" stroke-width="3"/><circle cx="200" cy="1350" r="7" fill="#F6D176" filter="url(#glow)"/>
  <text x="330" y="1318" class="serif" font-size="56" fill="#FFF5DF">Sun Sign</text>
  <text x="330" y="1364" class="sans" font-size="26" fill="#B783FF" font-weight="700">Astrology</text>
  <text x="330" y="1410" class="sans" font-size="26" fill="#C5B7D2">Your core solar identity</text>
  <text x="330" y="1462" class="sans" font-size="28" fill="#F7CB72" font-weight="700">View insights →</text>
</svg>
