<svg width="900" height="1600" viewBox="0 0 900 1600" fill="none" xmlns="http://www.w3.org/2000/svg" role="img" aria-label="eLuna daily guidance app screen">
  <defs>
    <radialGradient id="bg" cx="50%" cy="20%" r="90%"><stop offset="0" stop-color="#361462"/><stop offset=".55" stop-color="#100923"/><stop offset="1" stop-color="#060512"/></radialGradient>
    <linearGradient id="panel" x1="0" y1="0" x2="1" y2="1"><stop stop-color="#3C206A" stop-opacity=".75"/><stop offset="1" stop-color="#090715" stop-opacity=".9"/></linearGradient>
    <linearGradient id="purple" x1="0" y1="0" x2="1" y2="0"><stop stop-color="#A55AF7"/><stop offset="1" stop-color="#6D27C8"/></linearGradient>
    <filter id="glow"><feGaussianBlur stdDeviation="7" result="b"/><feMerge><feMergeNode in="b"/><feMergeNode in="SourceGraphic"/></feMerge></filter>
    <style>.sans{font-family:Manrope,Inter,Arial,sans-serif}.serif{font-family:Cormorant Garamond,Georgia,serif}.label{letter-spacing:.12em;font-weight:700;fill:#F1C86D}</style>
  </defs>
  <rect width="900" height="1600" rx="74" fill="url(#bg)"/>
  <g opacity=".65">
    <circle cx="92" cy="182" r="2" fill="#fff"/><circle cx="220" cy="240" r="2" fill="#F3C96B"/><circle cx="694" cy="176" r="2" fill="#BB72FF"/><circle cx="760" cy="330" r="2" fill="#fff"/>
    <path d="M92 182L220 240L390 192L520 275L694 176L760 330" stroke="#F3C96B" stroke-opacity=".22"/>
  </g>
  <text x="90" y="116" class="sans" font-size="22" fill="#F3EAFB">9:41</text><text x="380" y="125" class="serif" font-size="60" fill="#E9CC85">eLuna</text>
  <rect x="75" y="185" width="750" height="82" rx="41" fill="#120C24" stroke="#fff" stroke-opacity=".10"/>
  <g transform="translate(105 209)"><circle cx="0" cy="18" r="25" fill="#30204C"/><text x="-9" y="26" class="sans" font-size="22" fill="#F5D177">M</text><circle cx="86" cy="18" r="25" fill="#30204C"/><text x="78" y="26" class="sans" font-size="22" fill="#F5D177">T</text><circle cx="172" cy="18" r="30" fill="#7A39CE"/><text x="160" y="28" class="sans" font-size="24" fill="#fff">W</text><circle cx="266" cy="18" r="25" fill="#30204C"/><text x="259" y="26" class="sans" font-size="22" fill="#B9ACC8">T</text><circle cx="352" cy="18" r="25" fill="#30204C"/><text x="346" y="26" class="sans" font-size="22" fill="#B9ACC8">F</text></g>
  <rect x="75" y="330" width="750" height="470" rx="50" fill="url(#panel)" stroke="#F2C76F" stroke-opacity=".3"/>
  <text x="125" y="398" class="sans label" font-size="24">GUIDANCE FOR TODAY</text>
  <text x="125" y="500" class="serif" font-size="78" fill="#FFF7E7">Notice what pulls</text>
  <text x="125" y="590" class="serif" font-size="78" fill="#FFF7E7">your attention.</text>
  <text x="125" y="655" class="sans" font-size="28" fill="#C5B8D5">The signal that repeats today may point</text>
  <text x="125" y="694" class="sans" font-size="28" fill="#C5B8D5">to your next step.</text>
  <rect x="125" y="730" width="610" height="78" rx="39" fill="url(#purple)"/><text x="317" y="780" class="sans" font-size="28" fill="#fff" font-weight="700">Open today’s guidance</text>
  <g transform="translate(75 872)">
    <rect x="0" y="0" width="350" height="240" rx="38" fill="#0F0B19" stroke="#fff" stroke-opacity=".10"/>
    <circle cx="175" cy="94" r="50" stroke="#F2C76F" stroke-opacity=".55"/><path d="M175 40V148M121 94H229" stroke="#F2C76F" stroke-opacity=".38"/><circle cx="175" cy="94" r="8" fill="#F2C76F" filter="url(#glow)"/>
    <text x="58" y="174" class="sans label" font-size="22">TODAY’S READING</text><text x="58" y="210" class="sans" font-size="27" fill="#DCD2EC">Personal insight</text>
  </g>
  <g transform="translate(475 872)">
    <rect x="0" y="0" width="350" height="240" rx="38" fill="#0F0B19" stroke="#fff" stroke-opacity=".10"/>
    <rect x="138" y="52" width="76" height="110" rx="14" fill="#1B102C" stroke="#F2C76F" stroke-opacity=".7"/><path d="M176 72L196 108L176 144L156 108Z" stroke="#F2C76F" stroke-width="3"/>
    <text x="72" y="174" class="sans label" font-size="22">DAILY CARD</text><text x="72" y="210" class="sans" font-size="27" fill="#DCD2EC">Draw card</text>
  </g>
  <rect x="75" y="1178" width="750" height="250" rx="42" fill="#140D24" stroke="#F2C76F" stroke-opacity=".22"/>
  <text x="125" y="1242" class="sans label" font-size="22">REPEAT AFFIRMATION</text><text x="125" y="1314" class="serif" font-size="54" fill="#FFF7E7">I can trust the pattern</text><text x="125" y="1376" class="serif" font-size="54" fill="#FFF7E7">that keeps returning.</text>
</svg>
